<svg width="305" height="19" viewBox="0 0 305 19" fill="none" xmlns="http://www.w3.org/2000/svg">
<path d="M10.978 15.272H5.214L4.29 18H0.352L5.94 2.556H10.296L15.884 18H11.902L10.978 15.272ZM10.01 12.368L8.096 6.714L6.204 12.368H10.01ZM21.3467 7.462C21.6987 6.89 22.2047 6.428 22.8647 6.076C23.5247 5.724 24.28 5.548 25.1307 5.548C26.1427 5.548 27.0594 5.80467 27.8807 6.318C28.702 6.83133 29.3474 7.56467 29.8167 8.518C30.3007 9.47133 30.5427 10.5787 30.5427 11.84C30.5427 13.1013 30.3007 14.216 29.8167 15.184C29.3474 16.1373 28.702 16.878 27.8807 17.406C27.0594 17.9193 26.1427 18.176 25.1307 18.176C24.2654 18.176 23.51 18.0073 22.8647 17.67C22.2194 17.318 21.7134 16.856 21.3467 16.284V18H17.5847V1.72H21.3467V7.462ZM26.7147 11.84C26.7147 10.9013 26.4507 10.168 25.9227 9.64C25.4094 9.09733 24.7714 8.826 24.0087 8.826C23.2607 8.826 22.6227 9.09733 22.0947 9.64C21.5814 10.1827 21.3247 10.9233 21.3247 11.862C21.3247 12.8007 21.5814 13.5413 22.0947 14.084C22.6227 14.6267 23.2607 14.898 24.0087 14.898C24.7567 14.898 25.3947 14.6267 25.9227 14.084C26.4507 13.5267 26.7147 12.7787 26.7147 11.84ZM31.7683 11.84C31.7683 10.5787 32.003 9.47133 32.4723 8.518C32.9563 7.56467 33.609 6.83133 34.4303 6.318C35.2517 5.80467 36.1683 5.548 37.1803 5.548C38.0457 5.548 38.801 5.724 39.4463 6.076C40.1063 6.428 40.6123 6.89 40.9643 7.462V5.724H44.7263V18H40.9643V16.262C40.5977 16.834 40.0843 17.296 39.4243 17.648C38.779 18 38.0237 18.176 37.1583 18.176C36.161 18.176 35.2517 17.9193 34.4303 17.406C33.609 16.878 32.9563 16.1373 32.4723 15.184C32.003 14.216 31.7683 13.1013 31.7683 11.84ZM40.9643 11.862C40.9643 10.9233 40.7003 10.1827 40.1723 9.64C39.659 9.09733 39.0283 8.826 38.2803 8.826C37.5323 8.826 36.8943 9.09733 36.3663 9.64C35.853 10.168 35.5963 10.9013 35.5963 11.84C35.5963 12.7787 35.853 13.5267 36.3663 14.084C36.8943 14.6267 37.5323 14.898 38.2803 14.898C39.0283 14.898 39.659 14.6267 40.1723 14.084C40.7003 13.5413 40.9643 12.8007 40.9643 11.862ZM46.7 11.862C46.7 10.586 46.9567 9.47133 47.47 8.518C47.998 7.56467 48.724 6.83133 49.648 6.318C50.5867 5.80467 51.6573 5.548 52.86 5.548C54.4 5.548 55.6833 5.95133 56.71 6.758C57.7513 7.56467 58.4333 8.70133 58.756 10.168H54.752C54.4147 9.22933 53.762 8.76 52.794 8.76C52.1047 8.76 51.5547 9.03133 51.144 9.574C50.7333 10.102 50.528 10.8647 50.528 11.862C50.528 12.8593 50.7333 13.6293 51.144 14.172C51.5547 14.7 52.1047 14.964 52.794 14.964C53.762 14.964 54.4147 14.4947 54.752 13.556H58.756C58.4333 14.9933 57.7513 16.1227 56.71 16.944C55.6687 17.7653 54.3853 18.176 52.86 18.176C51.6573 18.176 50.5867 17.9193 49.648 17.406C48.724 16.8927 47.998 16.1593 47.47 15.206C46.9567 14.2527 46.7 13.138 46.7 11.862ZM72.8903 5.724V18H69.1283V16.328C68.747 16.8707 68.2263 17.3107 67.5663 17.648C66.921 17.9707 66.2023 18.132 65.4103 18.132C64.4716 18.132 63.643 17.9267 62.9243 17.516C62.2056 17.0907 61.6483 16.482 61.2523 15.69C60.8563 14.898 60.6583 13.9667 60.6583 12.896V5.724H64.3983V12.39C64.3983 13.2113 64.611 13.8493 65.0363 14.304C65.4616 14.7587 66.0336 14.986 66.7523 14.986C67.4856 14.986 68.065 14.7587 68.4903 14.304C68.9156 13.8493 69.1283 13.2113 69.1283 12.39V5.724H72.8903ZM80.5865 18.176C79.5158 18.176 78.5625 17.9927 77.7265 17.626C76.8905 17.2593 76.2305 16.7607 75.7465 16.13C75.2625 15.4847 74.9912 14.766 74.9325 13.974H78.6505C78.6945 14.3993 78.8925 14.744 79.2445 15.008C79.5965 15.272 80.0292 15.404 80.5425 15.404C81.0118 15.404 81.3712 15.316 81.6205 15.14C81.8845 14.9493 82.0165 14.7073 82.0165 14.414C82.0165 14.062 81.8332 13.8053 81.4665 13.644C81.0998 13.468 80.5058 13.2773 79.6845 13.072C78.8045 12.8667 78.0712 12.654 77.4845 12.434C76.8978 12.1993 76.3918 11.84 75.9665 11.356C75.5412 10.8573 75.3285 10.19 75.3285 9.354C75.3285 8.65 75.5192 8.012 75.9005 7.44C76.2965 6.85333 76.8685 6.39133 77.6165 6.054C78.3792 5.71667 79.2812 5.548 80.3225 5.548C81.8625 5.548 83.0725 5.92933 83.9525 6.692C84.8472 7.45467 85.3605 8.46667 85.4925 9.728H82.0165C81.9578 9.30267 81.7672 8.96533 81.4445 8.716C81.1365 8.46667 80.7258 8.342 80.2125 8.342C79.7725 8.342 79.4352 8.43 79.2005 8.606C78.9658 8.76733 78.8485 8.99467 78.8485 9.288C78.8485 9.64 79.0318 9.904 79.3985 10.08C79.7798 10.256 80.3665 10.432 81.1585 10.608C82.0678 10.8427 82.8085 11.0773 83.3805 11.312C83.9525 11.532 84.4512 11.8987 84.8765 12.412C85.3165 12.9107 85.5438 13.5853 85.5585 14.436C85.5585 15.1547 85.3532 15.8 84.9425 16.372C84.5465 16.9293 83.9672 17.3693 83.2045 17.692C82.4565 18.0147 81.5838 18.176 80.5865 18.176ZM91.8842 10.256C91.8842 8.73067 92.2142 7.374 92.8742 6.186C93.5342 4.98333 94.4509 4.052 95.6242 3.392C96.8122 2.71733 98.1542 2.38 99.6502 2.38C101.484 2.38 103.053 2.864 104.358 3.832C105.664 4.8 106.536 6.12 106.976 7.792H102.84C102.532 7.14667 102.092 6.65533 101.52 6.318C100.963 5.98067 100.325 5.812 99.6062 5.812C98.4475 5.812 97.5089 6.21533 96.7902 7.022C96.0715 7.82867 95.7122 8.90667 95.7122 10.256C95.7122 11.6053 96.0715 12.6833 96.7902 13.49C97.5089 14.2967 98.4475 14.7 99.6062 14.7C100.325 14.7 100.963 14.5313 101.52 14.194C102.092 13.8567 102.532 13.3653 102.84 12.72H106.976C106.536 14.392 105.664 15.712 104.358 16.68C103.053 17.6333 101.484 18.11 99.6502 18.11C98.1542 18.11 96.8122 17.78 95.6242 17.12C94.4509 16.4453 93.5342 15.514 92.8742 14.326C92.2142 13.138 91.8842 11.7813 91.8842 10.256ZM114.868 18.176C113.665 18.176 112.58 17.9193 111.612 17.406C110.659 16.8927 109.903 16.1593 109.346 15.206C108.803 14.2527 108.532 13.138 108.532 11.862C108.532 10.6007 108.811 9.49333 109.368 8.54C109.925 7.572 110.688 6.83133 111.656 6.318C112.624 5.80467 113.709 5.548 114.912 5.548C116.115 5.548 117.2 5.80467 118.168 6.318C119.136 6.83133 119.899 7.572 120.456 8.54C121.013 9.49333 121.292 10.6007 121.292 11.862C121.292 13.1233 121.006 14.238 120.434 15.206C119.877 16.1593 119.107 16.8927 118.124 17.406C117.156 17.9193 116.071 18.176 114.868 18.176ZM114.868 14.92C115.587 14.92 116.195 14.656 116.694 14.128C117.207 13.6 117.464 12.8447 117.464 11.862C117.464 10.8793 117.215 10.124 116.716 9.596C116.232 9.068 115.631 8.804 114.912 8.804C114.179 8.804 113.57 9.068 113.086 9.596C112.602 10.1093 112.36 10.8647 112.36 11.862C112.36 12.8447 112.595 13.6 113.064 14.128C113.548 14.656 114.149 14.92 114.868 14.92ZM130.768 5.592C132.205 5.592 133.349 6.06133 134.2 7C135.065 7.924 135.498 9.2 135.498 10.828V18H131.758V11.334C131.758 10.5127 131.545 9.87467 131.12 9.42C130.694 8.96533 130.122 8.738 129.404 8.738C128.685 8.738 128.113 8.96533 127.688 9.42C127.262 9.87467 127.05 10.5127 127.05 11.334V18H123.288V5.724H127.05V7.352C127.431 6.80933 127.944 6.384 128.59 6.076C129.235 5.75333 129.961 5.592 130.768 5.592ZM143.634 14.48L146.296 5.724H150.3L145.944 18H141.302L136.946 5.724H140.972L143.634 14.48ZM163.456 11.664C163.456 12.016 163.434 12.3827 163.39 12.764H154.876C154.934 13.5267 155.176 14.1133 155.602 14.524C156.042 14.92 156.577 15.118 157.208 15.118C158.146 15.118 158.799 14.722 159.166 13.93H163.17C162.964 14.7367 162.59 15.4627 162.048 16.108C161.52 16.7533 160.852 17.2593 160.046 17.626C159.239 17.9927 158.337 18.176 157.34 18.176C156.137 18.176 155.066 17.9193 154.128 17.406C153.189 16.8927 152.456 16.1593 151.928 15.206C151.4 14.2527 151.136 13.138 151.136 11.862C151.136 10.586 151.392 9.47133 151.906 8.518C152.434 7.56467 153.167 6.83133 154.106 6.318C155.044 5.80467 156.122 5.548 157.34 5.548C158.528 5.548 159.584 5.79733 160.508 6.296C161.432 6.79467 162.15 7.506 162.664 8.43C163.192 9.354 163.456 10.432 163.456 11.664ZM159.606 10.674C159.606 10.0287 159.386 9.51533 158.946 9.134C158.506 8.75267 157.956 8.562 157.296 8.562C156.665 8.562 156.13 8.74533 155.69 9.112C155.264 9.47867 155 9.99933 154.898 10.674H159.606ZM172.92 5.592C174.358 5.592 175.502 6.06133 176.352 7C177.218 7.924 177.65 9.2 177.65 10.828V18H173.91V11.334C173.91 10.5127 173.698 9.87467 173.272 9.42C172.847 8.96533 172.275 8.738 171.556 8.738C170.838 8.738 170.266 8.96533 169.84 9.42C169.415 9.87467 169.202 10.5127 169.202 11.334V18H165.44V5.724H169.202V7.352C169.584 6.80933 170.097 6.384 170.742 6.076C171.388 5.75333 172.114 5.592 172.92 5.592ZM187.106 14.81V18H185.192C183.828 18 182.765 17.67 182.002 17.01C181.24 16.3353 180.858 15.2427 180.858 13.732V8.848H179.362V5.724H180.858V2.732H184.62V5.724H187.084V8.848H184.62V13.776C184.62 14.1427 184.708 14.4067 184.884 14.568C185.06 14.7293 185.354 14.81 185.764 14.81H187.106ZM191.094 4.448C190.434 4.448 189.891 4.25733 189.466 3.876C189.055 3.48 188.85 2.996 188.85 2.424C188.85 1.83733 189.055 1.35333 189.466 0.971999C189.891 0.575999 190.434 0.377999 191.094 0.377999C191.739 0.377999 192.267 0.575999 192.678 0.971999C193.103 1.35333 193.316 1.83733 193.316 2.424C193.316 2.996 193.103 3.48 192.678 3.876C192.267 4.25733 191.739 4.448 191.094 4.448ZM192.964 5.724V18H189.202V5.724H192.964ZM201.278 18.176C200.076 18.176 198.99 17.9193 198.022 17.406C197.069 16.8927 196.314 16.1593 195.756 15.206C195.214 14.2527 194.942 13.138 194.942 11.862C194.942 10.6007 195.221 9.49333 195.778 8.54C196.336 7.572 197.098 6.83133 198.066 6.318C199.034 5.80467 200.12 5.548 201.322 5.548C202.525 5.548 203.61 5.80467 204.578 6.318C205.546 6.83133 206.309 7.572 206.866 8.54C207.424 9.49333 207.702 10.6007 207.702 11.862C207.702 13.1233 207.416 14.238 206.844 15.206C206.287 16.1593 205.517 16.8927 204.534 17.406C203.566 17.9193 202.481 18.176 201.278 18.176ZM201.278 14.92C201.997 14.92 202.606 14.656 203.104 14.128C203.618 13.6 203.874 12.8447 203.874 11.862C203.874 10.8793 203.625 10.124 203.126 9.596C202.642 9.068 202.041 8.804 201.322 8.804C200.589 8.804 199.98 9.068 199.496 9.596C199.012 10.1093 198.77 10.8647 198.77 11.862C198.77 12.8447 199.005 13.6 199.474 14.128C199.958 14.656 200.56 14.92 201.278 14.92ZM217.178 5.592C218.615 5.592 219.759 6.06133 220.61 7C221.475 7.924 221.908 9.2 221.908 10.828V18H218.168V11.334C218.168 10.5127 217.955 9.87467 217.53 9.42C217.105 8.96533 216.533 8.738 215.814 8.738C215.095 8.738 214.523 8.96533 214.098 9.42C213.673 9.87467 213.46 10.5127 213.46 11.334V18H209.698V5.724H213.46V7.352C213.841 6.80933 214.355 6.384 215 6.076C215.645 5.75333 216.371 5.592 217.178 5.592ZM228.546 10.256C228.546 8.73067 228.876 7.374 229.536 6.186C230.196 4.98333 231.113 4.052 232.286 3.392C233.474 2.71733 234.816 2.38 236.312 2.38C238.146 2.38 239.715 2.864 241.02 3.832C242.326 4.8 243.198 6.12 243.638 7.792H239.502C239.194 7.14667 238.754 6.65533 238.182 6.318C237.625 5.98067 236.987 5.812 236.268 5.812C235.11 5.812 234.171 6.21533 233.452 7.022C232.734 7.82867 232.374 8.90667 232.374 10.256C232.374 11.6053 232.734 12.6833 233.452 13.49C234.171 14.2967 235.11 14.7 236.268 14.7C236.987 14.7 237.625 14.5313 238.182 14.194C238.754 13.8567 239.194 13.3653 239.502 12.72H243.638C243.198 14.392 242.326 15.712 241.02 16.68C239.715 17.6333 238.146 18.11 236.312 18.11C234.816 18.11 233.474 17.78 232.286 17.12C231.113 16.4453 230.196 15.514 229.536 14.326C228.876 13.138 228.546 11.7813 228.546 10.256ZM257.514 11.664C257.514 12.016 257.492 12.3827 257.448 12.764H248.934C248.993 13.5267 249.235 14.1133 249.66 14.524C250.1 14.92 250.635 15.118 251.266 15.118C252.205 15.118 252.857 14.722 253.224 13.93H257.228C257.023 14.7367 256.649 15.4627 256.106 16.108C255.578 16.7533 254.911 17.2593 254.104 17.626C253.297 17.9927 252.395 18.176 251.398 18.176C250.195 18.176 249.125 17.9193 248.186 17.406C247.247 16.8927 246.514 16.1593 245.986 15.206C245.458 14.2527 245.194 13.138 245.194 11.862C245.194 10.586 245.451 9.47133 245.964 8.518C246.492 7.56467 247.225 6.83133 248.164 6.318C249.103 5.80467 250.181 5.548 251.398 5.548C252.586 5.548 253.642 5.79733 254.566 6.296C255.49 6.79467 256.209 7.506 256.722 8.43C257.25 9.354 257.514 10.432 257.514 11.664ZM253.664 10.674C253.664 10.0287 253.444 9.51533 253.004 9.134C252.564 8.75267 252.014 8.562 251.354 8.562C250.723 8.562 250.188 8.74533 249.748 9.112C249.323 9.47867 249.059 9.99933 248.956 10.674H253.664ZM266.979 5.592C268.416 5.592 269.56 6.06133 270.411 7C271.276 7.924 271.709 9.2 271.709 10.828V18H267.969V11.334C267.969 10.5127 267.756 9.87467 267.331 9.42C266.905 8.96533 266.333 8.738 265.615 8.738C264.896 8.738 264.324 8.96533 263.899 9.42C263.473 9.87467 263.261 10.5127 263.261 11.334V18H259.499V5.724H263.261V7.352C263.642 6.80933 264.155 6.384 264.801 6.076C265.446 5.75333 266.172 5.592 266.979 5.592ZM281.165 14.81V18H279.251C277.887 18 276.824 17.67 276.061 17.01C275.298 16.3353 274.917 15.2427 274.917 13.732V8.848H273.421V5.724H274.917V2.732H278.679V5.724H281.143V8.848H278.679V13.776C278.679 14.1427 278.767 14.4067 278.943 14.568C279.119 14.7293 279.412 14.81 279.823 14.81H281.165ZM294.832 11.664C294.832 12.016 294.81 12.3827 294.766 12.764H286.252C286.311 13.5267 286.553 14.1133 286.978 14.524C287.418 14.92 287.954 15.118 288.584 15.118C289.523 15.118 290.176 14.722 290.542 13.93H294.546C294.341 14.7367 293.967 15.4627 293.424 16.108C292.896 16.7533 292.229 17.2593 291.422 17.626C290.616 17.9927 289.714 18.176 288.716 18.176C287.514 18.176 286.443 17.9193 285.504 17.406C284.566 16.8927 283.832 16.1593 283.304 15.206C282.776 14.2527 282.512 13.138 282.512 11.862C282.512 10.586 282.769 9.47133 283.282 8.518C283.81 7.56467 284.544 6.83133 285.482 6.318C286.421 5.80467 287.499 5.548 288.716 5.548C289.904 5.548 290.96 5.79733 291.884 6.296C292.808 6.79467 293.527 7.506 294.04 8.43C294.568 9.354 294.832 10.432 294.832 11.664ZM290.982 10.674C290.982 10.0287 290.762 9.51533 290.322 9.134C289.882 8.75267 289.332 8.562 288.672 8.562C288.042 8.562 287.506 8.74533 287.066 9.112C286.641 9.47867 286.377 9.99933 286.274 10.674H290.982ZM300.579 7.77C301.019 7.09533 301.569 6.56733 302.229 6.186C302.889 5.79 303.622 5.592 304.429 5.592V9.574H303.395C302.456 9.574 301.752 9.77933 301.283 10.19C300.814 10.586 300.579 11.29 300.579 12.302V18H296.817V5.724H300.579V7.77Z" fill="#3E3E3E"/>
</svg>
